<svg width="571" height="574" fill="none" xmlns="http://www.w3.org/2000/svg"><path d="M404.114 100.068a3.351 3.351 0 1 0-6.703 0 3.351 3.351 0 0 0 6.703 0Zm-12.45 0a3.352 3.352 0 1 0-6.704 0 3.352 3.352 0 0 0 6.704 0Zm12.45-14.365a3.352 3.352 0 1 0-6.703-.001 3.352 3.352 0 0 0 6.703 0Zm-14.365 0a3.352 3.352 0 1 0-6.704 0 3.352 3.352 0 0 0 6.704 0Zm28.731 14.365a3.352 3.352 0 1 0-6.704 0 3.352 3.352 0 0 0 6.704 0Zm0-14.365a3.352 3.352 0 1 0-6.704 0 3.352 3.352 0 0 0 6.704 0Zm13.408 14.365c0-1.851-1.286-3.352-2.873-3.352-1.587 0-2.873 1.501-2.873 3.352 0 1.852 1.286 3.352 2.873 3.352 1.587 0 2.873-1.5 2.873-3.352Zm0-14.365c0-1.852-1.286-3.352-2.873-3.352-1.587 0-2.873 1.5-2.873 3.352 0 1.85 1.286 3.352 2.873 3.352 1.587 0 2.873-1.501 2.873-3.352Zm14.366 14.365a3.352 3.352 0 1 0-6.704 0 3.352 3.352 0 0 0 6.704 0Zm0-14.365a3.352 3.352 0 1 0-6.704 0 3.352 3.352 0 0 0 6.704 0Zm14.365 0a3.352 3.352 0 1 0-6.703-.001 3.352 3.352 0 0 0 6.703 0Zm14.366 0a3.352 3.352 0 1 0-6.704 0 3.352 3.352 0 0 0 6.704 0Zm-70.871 42.139a3.352 3.352 0 1 0-6.703 0 3.352 3.352 0 0 0 6.703 0Zm0 14.366a3.351 3.351 0 1 0-6.704 0 3.352 3.352 0 0 0 6.704 0Zm-12.45-14.366a3.352 3.352 0 1 0-6.705 0 3.352 3.352 0 0 0 6.705 0Zm12.45-13.887c0-1.587-1.5-2.873-3.352-2.873-1.851 0-3.352 1.286-3.352 2.873 0 1.587 1.501 2.873 3.352 2.873 1.852 0 3.352-1.286 3.352-2.873Zm14.366 13.887a3.352 3.352 0 1 0-6.705 0 3.352 3.352 0 0 0 6.705 0Zm0 14.366a3.352 3.352 0 1 0-6.703 0 3.352 3.352 0 0 0 6.703 0Zm0-28.253c0-1.587-1.501-2.873-3.352-2.873s-3.352 1.286-3.352 2.873c0 1.587 1.501 2.873 3.352 2.873s3.352-1.286 3.352-2.873Zm13.408 13.887c0-1.851-1.286-3.352-2.873-3.352-1.587 0-2.873 1.501-2.873 3.352s1.286 3.352 2.873 3.352c1.587 0 2.873-1.501 2.873-3.352Zm0 14.366c0-1.852-1.286-3.352-2.873-3.352-1.587 0-2.873 1.5-2.873 3.352 0 1.851 1.286 3.352 2.873 3.352 1.587 0 2.873-1.501 2.873-3.352Zm0-28.253a2.873 2.873 0 1 0-5.745 0 2.873 2.873 0 0 0 5.745 0Zm14.366 13.887a3.352 3.352 0 1 0-6.705 0 3.352 3.352 0 0 0 6.705 0Zm0-13.887c0-1.587-1.501-2.873-3.352-2.873s-3.352 1.286-3.352 2.873c0 1.587 1.501 2.873 3.352 2.873s3.352-1.286 3.352-2.873Zm14.365 0c0-1.587-1.5-2.873-3.352-2.873-1.851 0-3.352 1.286-3.352 2.873 0 1.587 1.501 2.873 3.352 2.873 1.852 0 3.352-1.286 3.352-2.873Zm14.366 0c0-1.587-1.501-2.873-3.352-2.873s-3.352 1.286-3.352 2.873c0 1.587 1.501 2.873 3.352 2.873s3.352-1.286 3.352-2.873ZM86.154 393.607c0-1.587-1.5-2.873-3.352-2.873-1.851 0-3.352 1.286-3.352 2.873 0 1.587 1.501 2.873 3.352 2.873s3.352-1.286 3.352-2.873Zm-12.45 0c0-1.587-1.5-2.873-3.352-2.873-1.851 0-3.352 1.286-3.352 2.873 0 1.587 1.5 2.873 3.352 2.873 1.851 0 3.352-1.286 3.352-2.873Zm12.45-13.887a3.352 3.352 0 1 0-6.704 0 3.352 3.352 0 0 0 6.704 0Zm14.366 13.887c0-1.587-1.5-2.873-3.352-2.873-1.851 0-3.352 1.286-3.352 2.873 0 1.587 1.5 2.873 3.352 2.873 1.851 0 3.352-1.286 3.352-2.873Zm0-13.887a3.352 3.352 0 1 0-6.704 0 3.352 3.352 0 0 0 6.704 0Zm14.366 13.887c0-1.587-1.501-2.873-3.352-2.873-1.852 0-3.352 1.286-3.352 2.873 0 1.587 1.5 2.873 3.352 2.873 1.851 0 3.352-1.286 3.352-2.873Zm0-13.887a3.352 3.352 0 1 0-6.705 0 3.352 3.352 0 0 0 6.705 0Zm13.408 13.887a2.873 2.873 0 1 0-5.747.001 2.873 2.873 0 0 0 5.747-.001Zm0-13.887c0-1.851-1.287-3.352-2.874-3.352-1.586 0-2.873 1.501-2.873 3.352s1.287 3.352 2.873 3.352c1.587 0 2.874-1.501 2.874-3.352Zm14.365 0a3.352 3.352 0 1 0-6.705 0 3.352 3.352 0 0 0 6.705 0Zm14.366 0a3.352 3.352 0 1 0-6.705 0 3.352 3.352 0 0 0 6.705 0Z" fill="#101963"/><path fill-rule="evenodd" clip-rule="evenodd" d="M397.26 118.471c-75.898-64.463-189.683-55.193-254.146 20.706l-.947-.804c64.907-76.421 179.476-85.755 255.897-20.848l-.804.946ZM100.92 253.79c0 99.567 80.716 180.283 180.283 180.283v1.242c-100.253 0-181.525-81.272-181.525-181.525h1.242Z" fill="#213282"/><path d="M454.949 253.79c0 95.479-77.595 172.881-173.313 172.881-95.719 0-173.314-77.402-173.314-172.881 0-95.48 77.595-172.882 173.314-172.882 95.718 0 173.313 77.402 173.313 172.882Z" fill="#232E61"/><path d="m300.418 474.749 32.252-204.444L322.675 256 214.051 393.247l86.367 81.502Z" fill="url(#a)"/><path d="M212.713 469.156a9.086 9.086 0 0 0 9.087 9.086h70.334a9.086 9.086 0 0 0 9.086-9.086v-70.334a9.087 9.087 0 0 0-9.086-9.087H221.8a9.087 9.087 0 0 0-9.087 9.087v70.334Z" fill="#242B4D"/><path fill-rule="evenodd" clip-rule="evenodd" d="M292.134 477.106H221.8a7.95 7.95 0 0 1-7.951-7.95v-70.334a7.951 7.951 0 0 1 7.951-7.951h70.334a7.95 7.95 0 0 1 7.95 7.951v70.334a7.95 7.95 0 0 1-7.95 7.95Zm-70.334 1.136a9.086 9.086 0 0 1-9.087-9.086v-70.334a9.087 9.087 0 0 1 9.087-9.087h70.334a9.087 9.087 0 0 1 9.086 9.087v70.334a9.086 9.086 0 0 1-9.086 9.086H221.8Z" fill="url(#b)"/><path d="M241.707 429.411h32.046v3.052h-32.046v-3.052Z" fill="#fff"/><path fill-rule="evenodd" clip-rule="evenodd" d="M270.722 426.4h-25.983v16.703h25.983V426.4Zm-25.983-3.093c-1.674 0-3.031 1.385-3.031 3.093v16.703c0 1.709 1.357 3.094 3.031 3.094h25.983c1.674 0 3.032-1.385 3.032-3.094V426.4c0-1.708-1.358-3.093-3.032-3.093h-25.983Z" fill="#fff"/><path d="M266.123 440.093a3.051 3.051 0 1 1-6.103.001 3.051 3.051 0 0 1 6.103-.001Z" fill="#fff"/><path d="M269.175 440.093a3.052 3.052 0 1 1-6.104 0 3.052 3.052 0 0 1 6.104 0Z" fill="#FF9F00"/><path fill-rule="evenodd" clip-rule="evenodd" d="m237.534 188.326 32.546 42.153-20.639 24.16L198 188.326h39.534Z" fill="#FC6D0B"/><path fill-rule="evenodd" clip-rule="evenodd" d="M334.473 147 198 319.992h36.169L368.109 147h-33.636Z" fill="#fff"/><path fill-rule="evenodd" clip-rule="evenodd" d="m260.469 269.998 71.141 92.281h42.265l-101.03-128.783-12.376 36.502Z" fill="#fff"/><path d="M478.87 270.508h-1.251v1.251h1.251v-1.251Zm0 8.758h-1.251v1.252h1.251v-1.252Zm0 7.508h-1.251v1.251h1.251v-1.251Zm0 8.759h-1.251v1.251h1.251v-1.251Zm0 8.759h-1.251v1.251h1.251v-1.251Zm0 7.507h-1.251v1.252h1.251v-1.252Zm0 8.759h-1.251v1.251h1.251v-1.251Zm8.759-50.05h-1.251v1.251h1.251v-1.251Zm0 8.758h-1.251v1.252h1.251v-1.252Zm0 7.508h-1.251v1.251h1.251v-1.251Zm0 8.759h-1.251v1.251h1.251v-1.251Zm0 8.759h-1.251v1.251h1.251v-1.251Zm0 7.507h-1.251v1.252h1.251v-1.252Zm0 8.759h-1.251v1.251h1.251v-1.251Zm8.759-50.05h-1.251v1.251h1.251v-1.251Zm0 8.758h-1.251v1.252h1.251v-1.252Zm0 7.508h-1.251v1.251h1.251v-1.251Zm0 8.759h-1.251v1.251h1.251v-1.251Zm0 8.759h-1.251v1.251h1.251v-1.251Zm0 7.507h-1.251v1.252h1.251v-1.252Zm0 8.759h-1.251v1.251h1.251v-1.251Zm8.759-50.05h-1.252v1.251h1.252v-1.251Zm0 8.758h-1.252v1.252h1.252v-1.252Zm0 7.508h-1.252v1.251h1.252v-1.251Zm0 8.759h-1.252v1.251h1.252v-1.251Zm0 8.759h-1.252v1.251h1.252v-1.251Zm0 7.507h-1.252v1.252h1.252v-1.252Zm0 8.759h-1.252v1.251h1.252v-1.251Zm8.758-50.05h-1.251v1.251h1.251v-1.251Zm0 8.758h-1.251v1.252h1.251v-1.252Zm0 7.508h-1.251v1.251h1.251v-1.251Zm0 8.759h-1.251v1.251h1.251v-1.251Zm0 8.759h-1.251v1.251h1.251v-1.251Zm0 7.507h-1.251v1.252h1.251v-1.252Zm0 8.759h-1.251v1.251h1.251v-1.251Zm8.759-50.05h-1.251v1.251h1.251v-1.251Zm0 8.758h-1.251v1.252h1.251v-1.252Zm0 7.508h-1.251v1.251h1.251v-1.251Zm0 8.759h-1.251v1.251h1.251v-1.251Zm0 8.759h-1.251v1.251h1.251v-1.251Zm0 7.507h-1.251v1.252h1.251v-1.252Zm0 8.759h-1.251v1.251h1.251v-1.251Zm8.759-50.05h-1.251v1.251h1.251v-1.251Zm0 8.758h-1.251v1.252h1.251v-1.252Zm0 7.508h-1.251v1.251h1.251v-1.251Zm0 8.759h-1.251v1.251h1.251v-1.251Zm0 8.759h-1.251v1.251h1.251v-1.251Zm0 7.507h-1.251v1.252h1.251v-1.252Zm0 8.759h-1.251v1.251h1.251v-1.251Zm-365.172-108.05H165v1.251h1.251v-1.251Zm0 8.758H165v1.252h1.251v-1.252Zm0 7.508H165v1.251h1.251v-1.251Zm0 8.759H165v1.251h1.251v-1.251Zm0 8.759H165v1.251h1.251v-1.251Zm0 7.507H165v1.252h1.251v-1.252Zm0 8.759H165v1.251h1.251v-1.251Zm8.759-50.05h-1.251v1.251h1.251v-1.251Zm0 8.758h-1.251v1.252h1.251v-1.252Zm0 7.508h-1.251v1.251h1.251v-1.251Zm0 8.759h-1.251v1.251h1.251v-1.251Zm0 8.759h-1.251v1.251h1.251v-1.251Zm0 7.507h-1.251v1.252h1.251v-1.252Zm0 8.759h-1.251v1.251h1.251v-1.251Zm8.759-50.05h-1.251v1.251h1.251v-1.251Zm0 8.758h-1.251v1.252h1.251v-1.252Zm0 7.508h-1.251v1.251h1.251v-1.251Zm0 8.759h-1.251v1.251h1.251v-1.251Zm0 8.759h-1.251v1.251h1.251v-1.251Zm0 7.507h-1.251v1.252h1.251v-1.252Zm0 8.759h-1.251v1.251h1.251v-1.251Zm8.759-50.05h-1.252v1.251h1.252v-1.251Zm0 8.758h-1.252v1.252h1.252v-1.252Zm0 7.508h-1.252v1.251h1.252v-1.251Zm0 8.759h-1.252v1.251h1.252v-1.251Zm0 8.759h-1.252v1.251h1.252v-1.251Zm0 7.507h-1.252v1.252h1.252v-1.252Zm0 8.759h-1.252v1.251h1.252v-1.251Zm8.758-50.05h-1.251v1.251h1.251v-1.251Zm0 8.758h-1.251v1.252h1.251v-1.252Zm0 7.508h-1.251v1.251h1.251v-1.251Zm0 8.759h-1.251v1.251h1.251v-1.251Zm0 8.759h-1.251v1.251h1.251v-1.251Zm0 7.507h-1.251v1.252h1.251v-1.252Zm0 8.759h-1.251v1.251h1.251v-1.251Zm8.759-50.05h-1.251v1.251h1.251v-1.251Zm0 8.758h-1.251v1.252h1.251v-1.252Zm0 7.508h-1.251v1.251h1.251v-1.251Zm0 8.759h-1.251v1.251h1.251v-1.251Zm0 8.759h-1.251v1.251h1.251v-1.251Zm0 7.507h-1.251v1.252h1.251v-1.252Zm0 8.759h-1.251v1.251h1.251v-1.251Zm8.759-50.05h-1.251v1.251h1.251v-1.251Zm0 8.758h-1.251v1.252h1.251v-1.252Zm0 7.508h-1.251v1.251h1.251v-1.251Zm0 8.759h-1.251v1.251h1.251v-1.251Zm0 8.759h-1.251v1.251h1.251v-1.251Zm0 7.507h-1.251v1.252h1.251v-1.252Zm0 8.759h-1.251v1.251h1.251v-1.251Z" fill="#fff"/><g filter="url(#c)"><path d="M385.027 304.292h121.372v86.337H385.027v-86.337Z" fill="#000"/></g><path opacity=".4" d="M360 304.895a4.357 4.357 0 0 1 4.356-4.357h133.933a4.356 4.356 0 0 1 4.355 4.357v96.393a4.356 4.356 0 0 1-4.355 4.357H364.356a4.357 4.357 0 0 1-4.356-4.357v-96.393Z" fill="url(#d)"/><path d="M366.257 293.985a4.705 4.705 0 0 1 4.702-4.709h131.988a4.706 4.706 0 0 1 4.703 4.709v84.427a4.706 4.706 0 0 1-4.703 4.709H370.959a4.705 4.705 0 0 1-4.702-4.709v-84.427Z" fill="#090F2C"/><path fill-rule="evenodd" clip-rule="evenodd" d="M502.947 290.604H370.959a3.379 3.379 0 0 0-3.377 3.381v84.427a3.38 3.38 0 0 0 3.377 3.382h131.988a3.38 3.38 0 0 0 3.377-3.382v-84.427a3.379 3.379 0 0 0-3.377-3.381Zm-131.988-1.328a4.705 4.705 0 0 0-4.702 4.709v84.427a4.705 4.705 0 0 0 4.702 4.709h131.988a4.706 4.706 0 0 0 4.703-4.709v-84.427a4.706 4.706 0 0 0-4.703-4.709H370.959Z" fill="url(#e)"/><g opacity=".7" fill="#4457B6"><path d="M496.009 363.437c-.19 0-.316.127-.316.316v.473h-1.044v-2.618h.19a.34.34 0 0 0 .316-.316.316.316 0 0 0-.316-.315h-.19v-4.006c-.221 0-.442-.032-.632-.126v4.1h-14.008v-4.1c-.19.063-.411.126-.632.126v4.006h-.19c-.19 0-.316.126-.316.315 0 .158.126.316.316.316h.19v5.583c0 .505.411.915.917.915h.253a2.467 2.467 0 0 1 4.932 0h3.131a2.467 2.467 0 0 1 4.933 0h.253c.506 0 .917-.41.917-.915v-2.334h1.043v.473c0 .189.127.315.316.315.19 0 .316-.126.316-.315v-1.546c-.063-.189-.189-.347-.379-.347Zm-4.218-11.598h-1.659l.45 2.502h2.052l-.056-.202-.787-2.3Zm-6.764 0h10.111v-.715c0-.298-.27-.536-.608-.536h-13.764c-.338 0-.643.238-.643.536v.685h4.904v.03Zm3.854 5.006c.625 0 1.185-.531 1.251-1.251h-2.502c.098.682.625 1.251 1.251 1.251Zm-1.251-5.006v2.502h2.502l-.507-2.502h-1.995Zm5.113.169 1.021 2.333h2.624l-1.677-2.502h-2.077l.109.169Zm-.108 4.837c.626 0 1.186-.531 1.252-1.251h-2.503c.099.682.626 1.251 1.251 1.251Z"/><path d="M495.137 356.845c.626 0 1.186-.531 1.252-1.251h-2.503c.066.682.593 1.251 1.251 1.251Zm-12.513 0c.626 0 1.153-.531 1.251-1.251h-2.502c.066.682.593 1.251 1.251 1.251Zm-1.251-1.251h-2.502c.099.72.625 1.251 1.251 1.251.626 0 1.153-.569 1.251-1.251Zm6.257-3.755h-1.969l-.534 2.502h2.503v-2.502Zm-6.305.169.048-.169h-1.385l-1.117 2.502h1.749l.705-2.333Zm3.802-.169h-2.447l-1.223 2.3-.084.202h3.121l.633-2.502Zm1.252 5.006c.625 0 1.185-.531 1.251-1.251h-2.503c.099.682.626 1.251 1.252 1.251Zm5.63 13.763a1.876 1.876 0 1 0 0-3.753 1.876 1.876 0 0 0 0 3.753Zm-8.759 0a1.877 1.877 0 1 0 0-3.754 1.877 1.877 0 0 0 0 3.754Z"/></g><path opacity=".1" d="M376.265 324.009c0-.524.406-.949.906-.949h118.31c.5 0 .906.425.906.949v5.61c0 .524-.406.949-.906.949h-118.31c-.5 0-.906-.425-.906-.949v-5.61Zm0 12.463a.9.9 0 0 1 .901-.899h82.032a.9.9 0 0 1 .902.899v31.987a.9.9 0 0 1-.902.899h-82.032a.9.9 0 0 1-.901-.899v-31.987Z" fill="#697FE9"/><path d="M376.265 284.66c0-2.979 2.318-5.394 5.177-5.394h19.676c2.859 0 5.177 2.415 5.177 5.394v20.495c0 2.978-2.318 5.393-5.177 5.393h-19.676c-2.859 0-5.177-2.415-5.177-5.393V284.66Z" fill="#131A3F"/><path fill-rule="evenodd" clip-rule="evenodd" d="M401.118 279.941h-19.676c-2.501 0-4.53 2.112-4.53 4.719v20.495c0 2.606 2.029 4.719 4.53 4.719h19.676c2.502 0 4.53-2.113 4.53-4.719V284.66c0-2.607-2.028-4.719-4.53-4.719Zm-19.676-.675c-2.859 0-5.177 2.415-5.177 5.394v20.495c0 2.978 2.318 5.393 5.177 5.393h19.676c2.859 0 5.177-2.415 5.177-5.393V284.66c0-2.979-2.318-5.394-5.177-5.394h-19.676Z" fill="url(#f)"/><path fill-rule="evenodd" clip-rule="evenodd" d="M386.276 288.987c0-.531.396-.962.885-.962h8.241c.488 0 .884.431.884.962v12.802l-2.739-1.849-2.266 1.529-2.265-1.529-2.74 1.849v-12.802Zm.948.069v10.88l1.792-1.21 2.265 1.53 2.266-1.53 1.792 1.21v-10.88h-8.115Z" fill="#fff"/><path fill-rule="evenodd" clip-rule="evenodd" d="M388.779 292.403c0-.345.219-.625.488-.625h4.03c.269 0 .487.28.487.625 0 .346-.218.626-.487.626h-4.03c-.269 0-.488-.28-.488-.626Zm0 2.504c0-.346.219-.626.488-.626h4.03c.269 0 .487.28.487.626 0 .345-.218.626-.487.626h-4.03c-.269 0-.488-.281-.488-.626Z" fill="#FF9F00"/><path d="m417.439 306.276-2.384-5.55h1.015l1.926 4.662h-.309l1.948-4.662h.978l-2.377 5.55h-.797Zm6.658-.436a1.95 1.95 0 0 1-.67.366 2.612 2.612 0 0 1-.797.125c-.411 0-.767-.081-1.068-.242a1.655 1.655 0 0 1-.685-.701c-.16-.307-.24-.671-.24-1.092 0-.405.077-.761.233-1.068a1.75 1.75 0 0 1 .647-.725c.275-.177.594-.265.955-.265.351 0 .652.081.902.242.251.156.444.382.58.678.14.296.21.647.21 1.052v.149h-2.7l.007-.523h2.137l-.256.265c.005-.379-.068-.668-.218-.865-.146-.198-.359-.296-.64-.296-.3 0-.534.111-.699.335-.166.218-.248.533-.248.943 0 .468.092.814.278 1.037.186.218.466.327.842.327a1.816 1.816 0 0 0 1.159-.413l.271.671Zm1.082.436v-2.822c0-.187-.005-.374-.015-.561a5.067 5.067 0 0 0-.046-.554h.888l.083.78-.083.023c.12-.296.298-.519.534-.67.241-.156.516-.234.827-.234.903 0 1.354.541 1.354 1.622v2.416h-.94v-2.377c0-.307-.058-.531-.173-.671-.115-.145-.293-.218-.534-.218-.291 0-.524.096-.699.288-.171.187-.256.437-.256.749v2.229h-.94Zm8.39 0h-.925v-.998l.091.141a1.197 1.197 0 0 1-.489.678 1.478 1.478 0 0 1-.835.234c-.331 0-.625-.083-.88-.25a1.689 1.689 0 0 1-.587-.725 2.619 2.619 0 0 1-.211-1.083c0-.411.068-.769.204-1.076a1.63 1.63 0 0 1 .594-.71c.255-.166.549-.249.88-.249.321 0 .599.083.835.249.24.167.403.39.489.671l-.106.117v-2.737h.94v5.738Zm-1.903-.694c.311 0 .552-.111.723-.335.17-.223.255-.543.255-.959 0-.41-.085-.727-.255-.951-.171-.223-.412-.335-.723-.335-.315 0-.561.112-.737.335-.175.219-.263.53-.263.936 0 .416.088.738.263.966.176.229.422.343.737.343Zm4.876.749c-.397 0-.74-.083-1.031-.25a1.69 1.69 0 0 1-.662-.701c-.155-.307-.233-.671-.233-1.092 0-.415.078-.777.233-1.083.156-.312.376-.551.662-.718.291-.166.634-.249 1.031-.249.386 0 .722.083 1.008.249.29.167.513.406.669.718.16.306.241.668.241 1.083 0 .421-.081.785-.241 1.092a1.682 1.682 0 0 1-.669.701c-.286.167-.622.25-1.008.25Zm0-.749c.311 0 .549-.106.714-.319.171-.218.256-.543.256-.975 0-.426-.085-.745-.256-.959-.165-.218-.403-.327-.714-.327-.316 0-.562.109-.738.327-.17.214-.255.533-.255.959 0 .432.085.757.255.975.171.213.417.319.738.319Zm2.947.694v-2.822c0-.182-.005-.366-.015-.553a5.091 5.091 0 0 0-.046-.562h.888l.105 1.014-.105-.055c.065-.348.213-.61.444-.787.23-.177.491-.265.782-.265.075 0 .145.005.211.015a.805.805 0 0 1 .173.047l-.015.889a1.227 1.227 0 0 0-.497-.101c-.226 0-.411.046-.556.14a.904.904 0 0 0-.324.382c-.07.156-.105.333-.105.53v2.128h-.94Zm5.536 0v-5.55h2.324c.582 0 1.03.145 1.346.436.321.286.482.678.482 1.177 0 .494-.163.886-.489 1.178-.321.291-.767.436-1.339.436h-1.354v2.323h-.97Zm.97-3.095h1.241c.341 0 .594-.072.76-.218.17-.146.255-.351.255-.616 0-.27-.082-.475-.248-.616-.165-.145-.421-.218-.767-.218h-1.241v1.668Zm5.532 3.15c-.331 0-.624-.081-.88-.242a1.633 1.633 0 0 1-.594-.701 2.638 2.638 0 0 1-.203-1.076c0-.416.07-.777.21-1.084.141-.312.336-.553.587-.725.256-.177.549-.265.88-.265.321 0 .599.083.835.249.24.162.403.388.489.679l-.091.054v-.881h.926v3.937h-.926v-.888l.091.031a1.197 1.197 0 0 1-.489.678 1.478 1.478 0 0 1-.835.234Zm.256-.749c.31 0 .551-.111.722-.335.17-.223.255-.54.255-.951 0-.421-.085-.74-.255-.959-.171-.223-.412-.335-.722-.335-.316 0-.562.114-.738.343-.175.229-.263.551-.263.967 0 .405.088.72.263.943.176.218.422.327.738.327Zm3.062 2.464-.211-.748c.236-.052.432-.115.587-.187.156-.068.283-.156.384-.266a1.31 1.31 0 0 0 .263-.421l.271-.639.24-.358 1.219-3.088h.933l-1.76 4.202a2.786 2.786 0 0 1-.504.819 1.902 1.902 0 0 1-.647.468 3.018 3.018 0 0 1-.775.218Zm1.316-1.512-1.752-4.195h.985l1.196 3.088-.429 1.107Zm3.076-.258v-2.822c0-.182-.005-.366-.015-.553a5.094 5.094 0 0 0-.045-.562h.888l.083.78-.083.008c.1-.281.261-.499.481-.655.221-.156.482-.234.782-.234.356 0 .635.094.835.281.206.182.339.462.399.842l-.181-.172c.101-.286.271-.514.512-.686.241-.177.521-.265.842-.265.427 0 .745.135.956.405.21.265.316.671.316 1.217v2.416h-.941v-2.385c0-.302-.05-.523-.15-.663-.095-.145-.256-.218-.481-.218a.74.74 0 0 0-.617.288c-.146.187-.218.447-.218.78v2.198h-.941v-2.385c0-.302-.052-.523-.158-.663-.1-.145-.26-.218-.481-.218a.748.748 0 0 0-.624.288c-.146.187-.218.447-.218.78v2.198h-.941Zm10.256-.436a1.95 1.95 0 0 1-.67.366 2.612 2.612 0 0 1-.797.125c-.411 0-.767-.081-1.068-.242a1.655 1.655 0 0 1-.685-.701c-.16-.307-.24-.671-.24-1.092 0-.405.077-.761.233-1.068a1.75 1.75 0 0 1 .647-.725c.275-.177.594-.265.955-.265.351 0 .652.081.903.242.25.156.443.382.579.678.14.296.21.647.21 1.052v.149h-2.7l.008-.523h2.136l-.256.265c.005-.379-.068-.668-.218-.865-.146-.198-.359-.296-.64-.296-.3 0-.534.111-.699.335-.166.218-.248.533-.248.943 0 .468.093.814.278 1.037.186.218.466.327.842.327a1.816 1.816 0 0 0 1.159-.413l.271.671Zm1.082.436v-2.822c0-.187-.005-.374-.015-.561a5.067 5.067 0 0 0-.046-.554h.888l.083.78-.083.023c.12-.296.298-.519.534-.67.241-.156.517-.234.827-.234.903 0 1.354.541 1.354 1.622v2.416h-.94v-2.377c0-.307-.058-.531-.173-.671-.115-.145-.293-.218-.534-.218-.291 0-.524.096-.699.288-.171.187-.256.437-.256.749v2.229h-.94Zm4.284-3.204v-.733h2.677v.733h-2.677Zm2.677 2.394v.771c-.1.037-.2.06-.3.071a2.002 2.002 0 0 1-.309.023c-.426 0-.757-.125-.993-.374-.23-.25-.346-.608-.346-1.076v-3.501l.94-.327v3.781c0 .177.028.317.083.421a.482.482 0 0 0 .218.211.795.795 0 0 0 .316.062c.065 0 .128-.005.188-.016.06-.01.128-.026.203-.046Zm2.264.865c-.692 0-1.239-.164-1.64-.491l.263-.686c.201.156.419.273.655.351.235.077.481.116.737.116.23 0 .406-.039.526-.116a.37.37 0 0 0 .181-.328.34.34 0 0 0-.128-.281c-.085-.072-.231-.135-.436-.187l-.632-.148c-.346-.078-.607-.208-.782-.39a1.01 1.01 0 0 1-.256-.709c0-.239.065-.45.195-.632.131-.187.314-.332.549-.436.236-.104.509-.156.82-.156.271 0 .532.044.783.133.25.083.468.205.654.366l-.271.67a2.126 2.126 0 0 0-.586-.335 1.673 1.673 0 0 0-.587-.109c-.216 0-.384.042-.504.125a.395.395 0 0 0-.181.343.36.36 0 0 0 .106.273c.075.067.203.122.383.163l.64.164c.376.083.649.218.819.405.176.182.264.424.264.726 0 .358-.141.644-.421.857-.281.208-.665.312-1.151.312Zm-258.968 54.266c-.785 0-1.466-.17-2.044-.509a3.443 3.443 0 0 1-1.333-1.467c-.303-.632-.455-1.379-.455-2.242 0-.855.152-1.594.455-2.218a3.37 3.37 0 0 1 1.333-1.456c.578-.347 1.259-.52 2.044-.52.533 0 1.033.085 1.5.254.474.162.866.401 1.177.716l-.466 1.087a3.761 3.761 0 0 0-1.067-.647 2.995 2.995 0 0 0-1.121-.208c-.763 0-1.356.258-1.778.774-.414.508-.622 1.248-.622 2.218 0 .971.208 1.718.622 2.242.422.516 1.015.774 1.778.774a3.18 3.18 0 0 0 1.121-.196 4.072 4.072 0 0 0 1.067-.659l.466 1.086a3.065 3.065 0 0 1-1.177.728 4.545 4.545 0 0 1-1.5.243Zm6.674-.012c-.585 0-1.092-.123-1.521-.37a2.493 2.493 0 0 1-.978-1.04c-.23-.454-.344-.993-.344-1.617 0-.616.114-1.152.344-1.606a2.46 2.46 0 0 1 .978-1.063c.429-.247.936-.37 1.521-.37.571 0 1.067.123 1.489.37.429.246.759.6.988 1.063.237.454.356.99.356 1.606 0 .624-.119 1.163-.356 1.617a2.473 2.473 0 0 1-.988 1.04c-.422.247-.918.37-1.489.37Zm0-1.109c.459 0 .811-.158 1.056-.474.251-.323.377-.805.377-1.444 0-.632-.126-1.106-.377-1.421-.245-.324-.597-.486-1.056-.486-.466 0-.829.162-1.088.486-.252.315-.378.789-.378 1.421 0 .639.126 1.121.378 1.444.252.316.614.474 1.088.474Zm4.352 1.028v-4.183c0-.269-.007-.543-.022-.82a7.473 7.473 0 0 0-.066-.832h1.31l.156 1.502-.156-.081c.097-.516.315-.905.656-1.167.34-.262.725-.393 1.155-.393.111 0 .215.008.311.024a1.1 1.1 0 0 1 .255.069l-.022 1.317c-.229-.1-.474-.15-.733-.15-.333 0-.607.069-.822.208a1.36 1.36 0 0 0-.478.566 1.91 1.91 0 0 0-.155.786v3.154h-1.389Zm4.684 2.496v-6.679c0-.269-.008-.543-.023-.82a7.473 7.473 0 0 0-.066-.832h1.311l.122 1.156-.078.069c.118-.431.352-.767.7-1.005.348-.247.759-.37 1.233-.37.489 0 .918.131 1.288.393.378.254.674.612.889 1.074.215.455.322.99.322 1.606 0 .609-.107 1.14-.322 1.595a2.532 2.532 0 0 1-.878 1.04c-.37.239-.803.358-1.299.358-.474 0-.885-.115-1.233-.347a1.725 1.725 0 0 1-.7-1.005l.122-.185V363h-1.388Zm2.843-3.524c.459 0 .815-.162 1.067-.485.251-.332.377-.798.377-1.399 0-.616-.126-1.093-.377-1.432-.252-.339-.608-.509-1.067-.509-.474 0-.837.166-1.088.497-.245.324-.367.797-.367 1.421 0 .609.122 1.079.367 1.41.251.331.614.497 1.088.497Zm6.933 1.109c-.585 0-1.092-.123-1.522-.37a2.49 2.49 0 0 1-.977-1.04c-.23-.454-.345-.993-.345-1.617 0-.616.115-1.152.345-1.606.229-.463.555-.817.977-1.063.43-.247.937-.37 1.522-.37.57 0 1.066.123 1.489.37.429.246.759.6.988 1.063.237.454.356.99.356 1.606 0 .624-.119 1.163-.356 1.617a2.473 2.473 0 0 1-.988 1.04c-.423.247-.919.37-1.489.37Zm0-1.109c.459 0 .811-.158 1.055-.474.252-.323.378-.805.378-1.444 0-.632-.126-1.106-.378-1.421-.244-.324-.596-.486-1.055-.486-.466 0-.829.162-1.089.486-.251.315-.377.789-.377 1.421 0 .639.126 1.121.377 1.444.252.316.615.474 1.089.474Zm4.352 1.028v-4.183c0-.269-.007-.543-.022-.82a7.47 7.47 0 0 0-.067-.832h1.311l.156 1.502-.156-.081c.096-.516.315-.905.655-1.167a1.848 1.848 0 0 1 1.156-.393c.111 0 .214.008.311.024a1.1 1.1 0 0 1 .255.069l-.022 1.317c-.23-.1-.474-.15-.733-.15-.333 0-.607.069-.822.208a1.345 1.345 0 0 0-.478.566 1.91 1.91 0 0 0-.155.786v3.154h-1.389Zm6.763.081c-.489 0-.922-.119-1.299-.358a2.425 2.425 0 0 1-.878-1.04c-.2-.455-.3-.986-.3-1.595 0-.616.104-1.151.311-1.606.207-.462.496-.82.867-1.074a2.22 2.22 0 0 1 1.299-.393c.474 0 .885.123 1.233.37.356.238.596.574.722 1.005l-.133.081v-1.306h1.366v5.835h-1.366v-1.317l.133.046a1.757 1.757 0 0 1-.722 1.005c-.348.232-.759.347-1.233.347Zm.378-1.109c.459 0 .814-.166 1.066-.497.252-.331.378-.801.378-1.41 0-.624-.126-1.097-.378-1.421-.252-.331-.607-.497-1.066-.497-.467 0-.83.17-1.089.509-.259.339-.389.816-.389 1.432 0 .601.13 1.067.389 1.399.259.323.622.485 1.089.485Zm3.956-3.721v-1.086h3.954v1.086h-3.954Zm3.954 3.548v1.143a1.832 1.832 0 0 1-.444.104 2.712 2.712 0 0 1-.455.035c-.63 0-1.119-.185-1.467-.555-.34-.369-.511-.901-.511-1.594v-5.188l1.389-.485v5.604c0 .262.041.469.122.624.082.146.189.25.322.312.141.061.296.092.467.092.096 0 .189-.008.277-.023.089-.016.189-.039.3-.069Zm6.098.554a2.884 2.884 0 0 1-.989.543 3.849 3.849 0 0 1-1.177.185c-.608 0-1.133-.119-1.578-.358a2.446 2.446 0 0 1-1.011-1.04c-.237-.455-.355-.994-.355-1.618 0-.601.115-1.128.344-1.583.23-.462.548-.82.956-1.074.407-.262.877-.393 1.41-.393.519 0 .963.119 1.333.358.371.231.656.566.856 1.005.207.439.311.959.311 1.56v.22h-3.988l.011-.774h3.155l-.378.392c.007-.562-.1-.989-.322-1.282-.215-.293-.53-.439-.944-.439-.445 0-.789.165-1.033.497-.245.323-.367.789-.367 1.398 0 .693.137 1.205.411 1.537.274.323.689.485 1.244.485.304 0 .6-.05.889-.15a2.91 2.91 0 0 0 .822-.463l.4.994Zm8.678.74c-.785 0-1.466-.17-2.044-.509a3.443 3.443 0 0 1-1.333-1.467c-.303-.632-.455-1.379-.455-2.242 0-.855.152-1.594.455-2.218a3.37 3.37 0 0 1 1.333-1.456c.578-.347 1.259-.52 2.044-.52.533 0 1.033.085 1.5.254.474.162.866.401 1.177.716l-.466 1.087a3.761 3.761 0 0 0-1.067-.647 2.996 2.996 0 0 0-1.122-.208c-.763 0-1.355.258-1.777.774-.415.508-.622 1.248-.622 2.218 0 .971.207 1.718.622 2.242.422.516 1.014.774 1.777.774.4 0 .774-.066 1.122-.196a4.072 4.072 0 0 0 1.067-.659l.466 1.086a3.065 3.065 0 0 1-1.177.728 4.545 4.545 0 0 1-1.5.243Zm6.307-.012c-.488 0-.921-.119-1.299-.358a2.432 2.432 0 0 1-.878-1.04c-.2-.455-.3-.986-.3-1.595 0-.616.104-1.151.311-1.606.208-.462.497-.82.867-1.074a2.225 2.225 0 0 1 1.299-.393c.474 0 .885.123 1.233.37.356.238.597.574.723 1.005l-.134.081v-1.306h1.367v5.835h-1.367v-1.317l.134.046a1.759 1.759 0 0 1-.723 1.005c-.348.232-.759.347-1.233.347Zm.378-1.109c.459 0 .815-.166 1.067-.497.251-.331.377-.801.377-1.41 0-.624-.126-1.097-.377-1.421-.252-.331-.608-.497-1.067-.497-.466 0-.829.17-1.088.509-.26.339-.389.816-.389 1.432 0 .601.129 1.067.389 1.399.259.323.622.485 1.088.485Zm4.645 1.028v-4.183c0-.269-.007-.543-.022-.82a7.718 7.718 0 0 0-.067-.832h1.311l.155 1.502-.155-.081c.096-.516.315-.905.655-1.167a1.847 1.847 0 0 1 1.155-.393c.111 0 .215.008.311.024.097.015.182.038.256.069l-.022 1.317c-.23-.1-.474-.15-.733-.15-.334 0-.608.069-.822.208a1.345 1.345 0 0 0-.478.566 1.895 1.895 0 0 0-.156.786v3.154h-1.388Zm9.951 0h-1.366v-1.479l.133.208a1.762 1.762 0 0 1-.722 1.005c-.348.232-.759.347-1.233.347-.489 0-.922-.123-1.3-.37-.37-.254-.659-.612-.866-1.074-.208-.462-.311-.998-.311-1.606 0-.609.1-1.14.3-1.595.207-.454.5-.805.877-1.051.378-.247.811-.37 1.3-.37.474 0 .885.123 1.233.37.355.246.596.577.722.993l-.156.174V352h1.389v8.504Zm-2.81-1.028c.459 0 .814-.166 1.066-.497.252-.331.378-.805.378-1.421 0-.609-.126-1.079-.378-1.41-.252-.331-.607-.497-1.066-.497-.467 0-.83.166-1.089.497-.259.324-.389.786-.389 1.387 0 .616.13 1.094.389 1.432.259.339.622.509 1.089.509Zm6.71 1.109c-1.022 0-1.829-.243-2.421-.728l.389-1.017c.296.231.618.405.966.52a3.42 3.42 0 0 0 1.089.174c.34 0 .599-.058.777-.174a.546.546 0 0 0 .267-.485.502.502 0 0 0-.189-.416c-.126-.108-.341-.2-.644-.277l-.933-.22c-.511-.115-.896-.308-1.156-.578-.251-.277-.377-.627-.377-1.051 0-.354.096-.666.289-.936.192-.277.462-.493.81-.647.348-.154.752-.231 1.211-.231.4 0 .785.065 1.155.196.371.124.693.305.967.543l-.4.994a3.107 3.107 0 0 0-.867-.497 2.452 2.452 0 0 0-.866-.162c-.318 0-.566.062-.744.185a.587.587 0 0 0-.267.509c0 .169.052.304.156.404.111.1.3.181.566.243l.944.242c.556.124.959.324 1.211.601.259.27.389.628.389 1.075 0 .531-.207.955-.622 1.271-.415.308-.981.462-1.7.462Zm82.007-213.244v-7.099H385V139h6.875v1.242h-2.685v7.099h-1.505Zm6.818.082c-.51 0-.961-.121-1.355-.363a2.484 2.484 0 0 1-.914-1.055c-.208-.46-.312-.999-.312-1.616 0-.625.108-1.168.324-1.629.216-.468.517-.831.902-1.089a2.362 2.362 0 0 1 1.355-.398c.493 0 .922.125 1.284.374.371.243.621.582.752 1.02l-.138.082v-1.324h1.423v5.916h-1.423v-1.336l.138.047a1.785 1.785 0 0 1-.752 1.019c-.362.235-.791.352-1.284.352Zm.393-1.125c.478 0 .849-.168 1.111-.504.262-.335.394-.812.394-1.429 0-.632-.132-1.113-.394-1.441-.262-.335-.633-.503-1.111-.503-.486 0-.864.171-1.134.515-.27.344-.405.828-.405 1.453 0 .609.135 1.081.405 1.417.27.328.648.492 1.134.492Zm8.821 1.043-1.586-2.003-.822-1.043-2.314-2.87h1.713l1.423 1.839.845 1.031 2.442 3.046h-1.701Zm-3.148 0h-1.725l2.465-3.046.822-1.031 1.424-1.839h1.724l-2.303 2.87-.845 1.043-1.562 2.003Zm9.504 0V139h3.577c.895 0 1.585.219 2.071.656.494.43.741 1.019.741 1.769 0 .742-.251 1.331-.752 1.769-.494.437-1.181.656-2.06.656h-2.084v3.491h-1.493Zm1.493-4.651h1.91c.525 0 .914-.109 1.169-.328.262-.219.393-.527.393-.925 0-.406-.127-.715-.382-.926-.254-.218-.648-.328-1.18-.328h-1.91v2.507Zm8.512 4.733c-.509 0-.96-.121-1.354-.363a2.484 2.484 0 0 1-.914-1.055c-.209-.46-.313-.999-.313-1.616 0-.625.108-1.168.324-1.629.216-.468.517-.831.903-1.089a2.361 2.361 0 0 1 1.354-.398c.494 0 .922.125 1.285.374.37.243.621.582.752 1.02l-.139.082v-1.324h1.424v5.916h-1.424v-1.336l.139.047a1.79 1.79 0 0 1-.752 1.019c-.363.235-.791.352-1.285.352Zm.394-1.125c.478 0 .848-.168 1.111-.504.262-.335.393-.812.393-1.429 0-.632-.131-1.113-.393-1.441-.263-.335-.633-.503-1.111-.503-.486 0-.864.171-1.135.515-.27.344-.405.828-.405 1.453 0 .609.135 1.081.405 1.417.271.328.649.492 1.135.492Zm4.712 3.702-.324-1.125c.362-.078.663-.171.902-.281.24-.101.436-.234.591-.398.162-.164.297-.375.405-.633l.416-.96.371-.539 1.875-4.639h1.435l-2.708 6.314c-.224.516-.483.926-.776 1.23a2.897 2.897 0 0 1-.995.703c-.363.156-.76.266-1.192.328Zm2.025-2.273-2.697-6.302h1.517l1.84 4.639-.66 1.663Zm4.733-.386V143.1c0-.273-.007-.55-.023-.832a7.647 7.647 0 0 0-.069-.843h1.365l.128 1.171-.128.012c.155-.422.402-.75.741-.984.34-.234.741-.351 1.204-.351.548 0 .976.14 1.284.421.317.274.521.695.614 1.266l-.278-.258c.154-.43.417-.773.787-1.031.37-.266.802-.398 1.296-.398.656 0 1.146.203 1.47.609.324.398.486 1.007.486 1.827v3.632h-1.447v-3.585c0-.453-.077-.785-.231-.996-.147-.218-.394-.328-.741-.328-.401 0-.717.145-.949.434-.223.281-.335.671-.335 1.171v3.304h-1.447v-3.585c0-.453-.081-.785-.243-.996-.154-.218-.401-.328-.741-.328-.409 0-.729.145-.96.434-.224.281-.336.671-.336 1.171v3.304h-1.447Zm15.78-.656a3.02 3.02 0 0 1-1.03.55c-.402.125-.81.188-1.227.188-.633 0-1.181-.121-1.644-.363a2.51 2.51 0 0 1-1.053-1.055c-.247-.46-.37-1.007-.37-1.64 0-.609.12-1.144.359-1.605.239-.468.571-.831.995-1.089.424-.266.914-.398 1.47-.398.54 0 1.003.121 1.389.363.385.234.683.574.891 1.019.216.445.324.972.324 1.581v.223h-4.155l.012-.785h3.286l-.393.398c.008-.57-.104-1.003-.336-1.3-.223-.297-.551-.445-.983-.445-.463 0-.822.168-1.077.504-.254.328-.382.8-.382 1.417 0 .703.143 1.222.429 1.558.285.328.717.492 1.296.492.316 0 .625-.051.926-.152.308-.109.594-.266.856-.469l.417 1.008Zm1.665.656V143.1c0-.281-.008-.562-.024-.843a7.143 7.143 0 0 0-.069-.832h1.366l.127 1.171-.127.036c.185-.446.459-.781.821-1.008a2.335 2.335 0 0 1 1.273-.351c1.389 0 2.084.812 2.084 2.436v3.632h-1.447v-3.573c0-.461-.089-.797-.266-1.008-.178-.218-.452-.328-.822-.328-.447 0-.806.145-1.076.434-.263.281-.394.656-.394 1.124v3.351h-1.446Zm6.591-4.815v-1.101h4.121v1.101h-4.121Zm4.121 3.596v1.16c-.155.055-.309.09-.463.106a3.072 3.072 0 0 1-.475.035c-.656 0-1.165-.188-1.528-.563-.354-.374-.532-.913-.532-1.616v-5.26l1.447-.492v5.682c0 .265.042.476.127.632a.725.725 0 0 0 .336.316c.146.063.308.094.486.094.1 0 .197-.008.289-.023.093-.016.197-.039.313-.071Zm3.482 1.301c-1.065 0-1.906-.246-2.523-.738l.405-1.031c.309.234.644.41 1.007.527.363.117.741.176 1.134.176.355 0 .625-.059.81-.176a.55.55 0 0 0 .278-.492c0-.18-.065-.32-.197-.422-.131-.109-.354-.203-.671-.281l-.972-.222c-.532-.118-.934-.313-1.204-.586-.262-.281-.393-.637-.393-1.066 0-.359.1-.676.301-.949.2-.281.482-.5.845-.656.362-.156.783-.234 1.261-.234.417 0 .818.066 1.204.199a2.94 2.94 0 0 1 1.007.55l-.417 1.008a3.234 3.234 0 0 0-.903-.504 2.636 2.636 0 0 0-.902-.164c-.332 0-.591.063-.776.188a.588.588 0 0 0-.278.515c0 .172.054.308.162.41.116.101.313.184.591.246l.983.246c.579.125 1 .328 1.262.609.27.273.405.637.405 1.09 0 .538-.216.968-.648 1.288-.432.313-1.022.469-1.771.469Z" fill="#fff"/><path d="m199.665 143.867 107.732 127.18 20.652-24.553-53.543-175.382-74.841 72.755Z" fill="url(#g)"/><path d="M275.291 74.46c0-4.53-3.64-8.203-8.13-8.203h-62.936c-4.49 0-8.13 3.672-8.13 8.203v63.497c0 4.53 3.64 8.203 8.13 8.203h62.936c4.49 0 8.13-3.673 8.13-8.203V74.46Z" fill="#242B4D"/><path fill-rule="evenodd" clip-rule="evenodd" d="M204.225 67.282h62.936c3.929 0 7.114 3.214 7.114 7.178v63.497c0 3.964-3.185 7.178-7.114 7.178h-62.936c-3.929 0-7.114-3.214-7.114-7.178V74.46c0-3.964 3.185-7.178 7.114-7.178Zm62.936-1.025c4.49 0 8.13 3.672 8.13 8.203v63.497c0 4.53-3.64 8.203-8.13 8.203h-62.936c-4.49 0-8.13-3.673-8.13-8.203V74.46c0-4.53 3.64-8.203 8.13-8.203h62.936Z" fill="url(#h)"/><path d="M228.106 107.907c0-.226.177-.442.493-.601.316-.16.745-.249 1.192-.249.447 0 .875.089 1.191.249.316.159.494.375.494.601v5.1c0 .226-.178.442-.494.601-.316.16-.744.249-1.191.249-.447 0-.876-.089-1.192-.249-.316-.159-.493-.375-.493-.601v-5.1Z" fill="#fff"/><path d="M234.845 107.907c0-.226.089-.442.247-.601a.836.836 0 0 1 1.192 0 .851.851 0 0 1 .246.601v5.1a.851.851 0 0 1-.246.601.838.838 0 0 1-1.192 0 .852.852 0 0 1-.247-.601v-5.1Z" fill="#FF9F00"/><path d="M241.584 107.907c0-.226.089-.442.247-.601a.835.835 0 0 1 1.191 0 .852.852 0 0 1 .247.601v5.1a.852.852 0 0 1-.247.601.836.836 0 0 1-1.191 0 .852.852 0 0 1-.247-.601v-5.1Zm-15.721 11.051a1.02 1.02 0 0 1-.43-.095 1.129 1.129 0 0 1-.364-.272 1.269 1.269 0 0 1-.244-.407 1.389 1.389 0 0 1 0-.959c.057-.152.139-.29.244-.406.104-.117.228-.209.364-.272.136-.063.282-.096.43-.096h19.655c.147 0 .293.033.43.096.136.063.26.155.364.272.104.116.187.254.243.406a1.368 1.368 0 0 1-.243 1.366 1.129 1.129 0 0 1-.364.272 1.027 1.027 0 0 1-.43.095h-19.655Zm0-14.64c-1.076 0-1.536-1.523-.681-2.25l9.828-8.355c.195-.166.434-.256.68-.256.246 0 .485.09.681.256l9.827 8.355c.856.727.394 2.25-.68 2.25h-19.655Zm16.327-2.507-6.5-5.526-6.501 5.526h13.001Z" fill="#fff"/><path d="M382.551 171.629 271.528 323.186l20.726 49.073 169.958-125.456-79.661-75.174Z" fill="url(#i)"/><path d="M462.648 177.303a8.303 8.303 0 0 0-8.303-8.303h-64.271a8.303 8.303 0 0 0-8.303 8.303v64.271a8.303 8.303 0 0 0 8.303 8.303h64.271a8.303 8.303 0 0 0 8.303-8.303v-64.271Z" fill="#242B4D"/><path fill-rule="evenodd" clip-rule="evenodd" d="M390.074 170.038h64.271a7.265 7.265 0 0 1 7.265 7.265v64.271a7.265 7.265 0 0 1-7.265 7.265h-64.271a7.265 7.265 0 0 1-7.265-7.265v-64.271a7.265 7.265 0 0 1 7.265-7.265ZM454.345 169a8.303 8.303 0 0 1 8.303 8.303v64.271a8.303 8.303 0 0 1-8.303 8.303h-64.271a8.303 8.303 0 0 1-8.303-8.303v-64.271a8.303 8.303 0 0 1 8.303-8.303h64.271Z" fill="url(#j)"/><path fill-rule="evenodd" clip-rule="evenodd" d="M421.383 199.166c-2.693 0-4.757 2.3-4.344 4.851l2.012 12.528-2.179.32-2.012-12.526c-.618-3.827 2.476-7.281 6.523-7.281s7.142 3.454 6.524 7.28c0 .001 0 0 0 0l-2.012 12.527-2.179-.32 2.012-12.527c.412-2.551-1.651-4.852-4.345-4.852Z" fill="#fff"/><path fill-rule="evenodd" clip-rule="evenodd" d="M413.128 216.865h1.998v4.503h12.51v-4.503h1.998v6.602h-16.506v-6.602Z" fill="#FF9F00"/><path fill-rule="evenodd" clip-rule="evenodd" d="M434.587 216.865h-24.759v-1.65h24.759v1.65Z" fill="#fff"/><path d="M200.412 50.903c-.904 0-1.688-.18-2.353-.538a3.773 3.773 0 0 1-1.535-1.553c-.349-.669-.524-1.46-.524-2.373 0-.905.175-1.687.524-2.348a3.698 3.698 0 0 1 1.535-1.54c.665-.368 1.449-.551 2.353-.551.614 0 1.189.09 1.726.269.546.171.998.424 1.356.758l-.537 1.15a4.458 4.458 0 0 0-1.228-.685 3.727 3.727 0 0 0-1.292-.22c-.878 0-1.56.273-2.046.82-.477.537-.716 1.32-.716 2.347 0 1.028.239 1.818.716 2.373.486.546 1.168.82 2.046.82.461 0 .891-.07 1.292-.209a4.75 4.75 0 0 0 1.228-.697l.537 1.15c-.358.334-.81.59-1.356.77a5.65 5.65 0 0 1-1.726.257Zm7.082-.013c-.793 0-1.389-.207-1.79-.623-.392-.424-.588-1.06-.588-1.908v-3.73h1.598v3.742c0 .449.098.78.294.991.196.212.491.318.883.318.469 0 .844-.147 1.125-.44.281-.294.422-.685.422-1.174v-3.437h1.611v6.176h-1.56v-1.272l.166-.012c-.187.448-.468.79-.844 1.027-.375.229-.814.343-1.317.343Zm5.649-.085v-4.427c0-.285-.008-.575-.025-.868a7.6 7.6 0 0 0-.077-.88h1.509l.179 1.59-.179-.086c.111-.547.362-.958.754-1.236a2.25 2.25 0 0 1 1.33-.415c.128 0 .247.008.358.024.111.016.209.04.294.073l-.025 1.395a2.246 2.246 0 0 0-.844-.16c-.384 0-.699.074-.946.22a1.46 1.46 0 0 0-.55.6c-.12.245-.179.522-.179.832v3.338h-1.599Zm5.392 0v-4.427c0-.285-.009-.575-.026-.868a7.386 7.386 0 0 0-.077-.88h1.509l.179 1.59-.179-.086c.111-.547.363-.958.755-1.236a2.247 2.247 0 0 1 1.33-.415c.128 0 .247.008.358.024.111.016.209.04.294.073l-.026 1.395a2.243 2.243 0 0 0-.844-.16c-.383 0-.699.074-.946.22a1.466 1.466 0 0 0-.55.6 1.876 1.876 0 0 0-.179.832v3.338h-1.598Zm10.816-.685a3.409 3.409 0 0 1-1.138.575c-.443.13-.895.196-1.356.196-.699 0-1.304-.127-1.815-.38a2.701 2.701 0 0 1-1.164-1.1c-.273-.481-.409-1.052-.409-1.712 0-.636.132-1.194.396-1.675a2.83 2.83 0 0 1 1.1-1.138c.469-.277 1.01-.416 1.624-.416.597 0 1.108.127 1.534.38.427.244.755.599.985 1.063.239.465.358 1.016.358 1.651v.233h-4.591l.013-.82h3.632l-.435.416c.009-.595-.115-1.047-.371-1.357-.247-.31-.609-.465-1.087-.465-.511 0-.908.175-1.189.526-.281.342-.422.835-.422 1.48 0 .733.158 1.276.473 1.626.316.343.793.514 1.432.514.35 0 .691-.053 1.023-.16.341-.113.657-.276.947-.488l.46 1.051Zm1.84.685v-4.427c0-.293-.009-.587-.026-.88a7.126 7.126 0 0 0-.077-.869h1.509l.141 1.223-.141.037c.205-.465.508-.815.908-1.052a2.69 2.69 0 0 1 1.407-.367c1.535 0 2.302.848 2.302 2.544v3.791h-1.599v-3.73c0-.48-.098-.831-.294-1.052-.196-.228-.498-.342-.908-.342-.494 0-.891.15-1.189.453-.29.293-.435.684-.435 1.174v3.497h-1.598Zm7.283-5.026v-1.15h4.553v1.15h-4.553Zm4.553 3.754v1.211a2.304 2.304 0 0 1-.512.11 3.504 3.504 0 0 1-.524.037c-.725 0-1.287-.196-1.688-.587-.392-.392-.588-.954-.588-1.688v-5.49l1.598-.514v5.93c0 .278.047.498.141.661a.789.789 0 0 0 .371.33c.162.066.341.098.537.098.111 0 .217-.008.32-.024.102-.017.217-.041.345-.074Zm6.168 1.272h-1.663l4.118-8.707h1.343l4.118 8.707h-1.637l-3.351-7.484h.448l-3.376 7.484Zm.153-2.042.627-1.223h4.642l.601 1.223h-5.87Zm11.932 2.127c-.674 0-1.258-.126-1.752-.378a2.757 2.757 0 0 1-1.126-1.101c-.255-.481-.383-1.044-.383-1.688 0-.652.136-1.223.409-1.712a2.834 2.834 0 0 1 1.164-1.137c.503-.27 1.091-.404 1.765-.404.451 0 .89.07 1.317.208.434.139.788.33 1.061.575l-.46 1.076a3.022 3.022 0 0 0-.87-.477 2.626 2.626 0 0 0-.921-.17c-.562 0-1.01.17-1.342.513-.324.342-.486.843-.486 1.504 0 .652.162 1.15.486 1.492.324.342.775.514 1.355.514.299 0 .601-.053.908-.16a3.11 3.11 0 0 0 .87-.5l.46 1.075c-.281.245-.644.437-1.087.575-.435.13-.891.196-1.368.196Zm6.827 0c-.673 0-1.257-.126-1.752-.378a2.749 2.749 0 0 1-1.125-1.101c-.256-.481-.384-1.044-.384-1.688 0-.652.137-1.223.41-1.712.272-.489.66-.868 1.163-1.137.503-.27 1.092-.404 1.765-.404.452 0 .891.07 1.317.208.435.139.789.33 1.062.575l-.461 1.076a3.004 3.004 0 0 0-.869-.477 2.626 2.626 0 0 0-.921-.17c-.563 0-1.01.17-1.343.513-.324.342-.486.843-.486 1.504 0 .652.162 1.15.486 1.492.324.342.776.514 1.356.514.298 0 .601-.053.908-.16.307-.114.597-.28.869-.5l.461 1.075c-.282.245-.644.437-1.087.575-.435.13-.891.196-1.369.196Zm6.841 0c-.674 0-1.258-.13-1.752-.39a2.749 2.749 0 0 1-1.125-1.101c-.265-.481-.397-1.052-.397-1.712 0-.652.132-1.22.397-1.7a2.71 2.71 0 0 1 1.125-1.125c.494-.261 1.078-.392 1.752-.392.656 0 1.227.13 1.713.392.495.26.874.636 1.139 1.125.272.48.409 1.047.409 1.7 0 .66-.137 1.23-.409 1.712-.265.473-.644.84-1.139 1.1-.486.261-1.057.392-1.713.392Zm0-1.173c.528 0 .933-.167 1.215-.502.29-.342.434-.852.434-1.528 0-.669-.144-1.17-.434-1.505-.282-.342-.687-.513-1.215-.513-.537 0-.955.171-1.253.514-.29.334-.435.835-.435 1.504 0 .676.145 1.186.435 1.528.289.335.707.502 1.253.502Zm7.35 1.173c-.793 0-1.389-.207-1.79-.623-.392-.424-.588-1.06-.588-1.908v-3.73h1.598v3.742c0 .449.098.78.294.991.196.212.491.318.883.318.469 0 .844-.147 1.125-.44.281-.294.422-.685.422-1.174v-3.437h1.611v6.176h-1.56v-1.272l.167-.012c-.188.448-.469.79-.844 1.027-.376.229-.815.343-1.318.343Zm5.649-.085v-4.427c0-.293-.008-.587-.025-.88a7.548 7.548 0 0 0-.077-.869h1.509l.141 1.223-.141.037c.204-.465.507-.815.908-1.052a2.687 2.687 0 0 1 1.406-.367c1.535 0 2.302.848 2.302 2.544v3.791h-1.598v-3.73c0-.48-.098-.831-.294-1.052-.196-.228-.499-.342-.908-.342-.495 0-.891.15-1.19.453-.289.293-.434.684-.434 1.174v3.497h-1.599Zm7.284-5.026v-1.15h4.552v1.15h-4.552Zm4.552 3.754v1.211a2.28 2.28 0 0 1-.511.11 3.517 3.517 0 0 1-.525.037c-.724 0-1.287-.196-1.688-.587-.392-.392-.588-.954-.588-1.688v-5.49l1.599-.514v5.93c0 .278.047.498.14.661a.794.794 0 0 0 .371.33c.162.066.341.098.537.098.111 0 .218-.008.32-.024.102-.017.217-.041.345-.074Zm3.848 1.357c-1.176 0-2.105-.256-2.787-.77l.447-1.076a3.8 3.8 0 0 0 1.113.55c.4.123.818.184 1.253.184.392 0 .69-.061.895-.184.205-.122.307-.293.307-.513a.517.517 0 0 0-.217-.44c-.145-.115-.393-.212-.742-.294l-1.074-.232c-.589-.123-1.032-.326-1.33-.612-.29-.293-.435-.664-.435-1.113 0-.375.111-.705.332-.99.222-.294.533-.522.934-.685.401-.163.865-.245 1.394-.245.46 0 .904.07 1.33.208.426.13.797.322 1.112.575l-.46 1.052a3.655 3.655 0 0 0-.998-.526 3.05 3.05 0 0 0-.997-.171c-.367 0-.652.065-.857.195a.609.609 0 0 0-.307.539c0 .179.06.322.179.428.128.105.346.191.653.256l1.087.257c.639.13 1.104.343 1.393.636.299.285.448.665.448 1.137 0 .563-.239 1.011-.716 1.346-.478.326-1.13.489-1.957.489Z" fill="#fff"/><path opacity=".4" d="M42 246.764a4.962 4.962 0 0 1 4.96-4.962h152.548a4.962 4.962 0 0 1 4.961 4.962v109.79a4.962 4.962 0 0 1-4.961 4.962H46.961A4.962 4.962 0 0 1 42 356.554v-109.79Z" fill="url(#k)"/><path d="M54.826 239.978c0-4.502 3.622-8.152 8.09-8.152h132.036c4.469 0 8.091 3.65 8.091 8.152v83.457c0 4.503-3.622 8.153-8.091 8.153H62.917c-4.469 0-8.091-3.65-8.091-8.153v-83.457Z" fill="#090F2C"/><path fill-rule="evenodd" clip-rule="evenodd" d="M194.952 232.869H62.917c-3.897 0-7.056 3.183-7.056 7.109v83.457c0 3.926 3.16 7.109 7.056 7.109h132.035c3.897 0 7.056-3.183 7.056-7.109v-83.457c0-3.926-3.159-7.109-7.056-7.109Zm-132.035-1.043c-4.469 0-8.091 3.65-8.091 8.152v83.457c0 4.503 3.622 8.153 8.09 8.153h132.036c4.469 0 8.091-3.65 8.091-8.153v-83.457c0-4.502-3.622-8.152-8.091-8.152H62.917Z" fill="url(#l)"/><path opacity=".1" d="M64.802 285.296c0-1.195.98-2.163 2.188-2.163h64.032c1.208 0 2.188.968 2.188 2.163v32.728c0 1.195-.98 2.163-2.188 2.163H66.99c-1.209 0-2.188-.968-2.188-2.163v-32.728Zm72.682 0c0-1.195.985-2.163 2.2-2.163h51.182c1.215 0 2.2.968 2.2 2.163v32.728c0 1.195-.985 2.163-2.2 2.163h-51.182c-1.215 0-2.2-.968-2.2-2.163v-32.728Z" fill="#697FE9"/><path fill-rule="evenodd" clip-rule="evenodd" d="M174.084 300.699h9.897v13.376h-.824v-12.582l-9.073.039v-.833Zm11.857-1.889v13.377h-.825v-12.582l-9.073.039v-.834h9.898Zm-8.252 10.772c-.13-.309-.528-.399-.837-.487-.349-.1-.712-.188-1.013-.388-.894-.595-.832-2.034.205-2.47.105-.045.217-.074.331-.098l-.095-.704h1.12l-.096.716c.187.042.367.106.526.203.336.205.519.533.599.884l-.894.171a.686.686 0 0 0-.218-.319.78.78 0 0 0-.452-.145c-.291-.009-.671.064-.783.347a.428.428 0 0 0 .104.459c.112.108.382.22.811.338.429.117.746.238.952.364.205.125.366.296.483.514.344.645.203 1.605-.43 2.064a1.712 1.712 0 0 1-.684.282l.082.618h-1.12l.085-.637a1.659 1.659 0 0 1-.645-.302c-.355-.28-.54-.697-.624-1.123l.853-.186c.073.441.413.79.917.79.284 0 .498-.07.642-.209.184-.178.28-.446.181-.682Zm-6 5.05 1.327 1.28.954-.92.951.918.962-.912.946.912.962-.912.945.912.97-.92.957.922 1.359-1.311v-12.014h-10.333v12.045Z" fill="#4457B6" opacity=".7"/><path opacity=".1" d="M64.802 272.524c0-1.225.98-2.219 2.188-2.219h64.032c1.208 0 2.188.994 2.188 2.219v4.114c0 1.225-.98 2.218-2.188 2.218H66.99c-1.209 0-2.188-.993-2.188-2.218v-4.114Z" fill="#697FE9"/><path d="M64.802 223.697c0-2.594 2.03-4.697 4.534-4.697h30.836c2.504 0 4.535 2.103 4.535 4.697v31.936c0 2.594-2.031 4.697-4.535 4.697H69.337c-2.505 0-4.535-2.103-4.535-4.697v-31.936Z" fill="#232945"/><path fill-rule="evenodd" clip-rule="evenodd" d="M100.172 219.939H69.337c-2.004 0-3.628 1.682-3.628 3.758v31.936c0 2.075 1.624 3.758 3.627 3.758h30.836c2.003 0 3.628-1.683 3.628-3.758v-31.936c0-2.076-1.625-3.758-3.628-3.758ZM69.337 219c-2.505 0-4.535 2.103-4.535 4.697v31.936c0 2.594 2.03 4.697 4.534 4.697h30.836c2.504 0 4.535-2.103 4.535-4.697v-31.936c0-2.594-2.031-4.697-4.535-4.697H69.337Z" fill="#4456A4"/><path fill-rule="evenodd" clip-rule="evenodd" d="M79.494 233.381a.381.381 0 0 0-.373.388v13.216a.38.38 0 0 0 .373.388h9.331v-13.604a.381.381 0 0 0-.373-.388h-8.958Zm10.825 5.441v-5.053c0-1.073-.836-1.943-1.867-1.943h-8.958c-1.03 0-1.866.87-1.866 1.943v13.216c0 1.073.835 1.943 1.866 1.943h11.944c1.031 0 1.867-.87 1.867-1.943v-6.608c0-.859-.669-1.555-1.494-1.555h-1.493Zm0 1.555v6.996h1.12a.381.381 0 0 0 .373-.388v-6.608h-1.493Z" fill="#fff"/><path d="M80.48 241.089c0-.394.4-.713.891-.713h5.345c.492 0 .89.319.89.713 0 .394-.398.713-.89.713H81.37c-.492 0-.89-.319-.89-.713Zm0-4.276c0-.394.4-.713.891-.713h5.345c.492 0 .89.319.89.713 0 .393-.398.712-.89.712H81.37c-.492 0-.89-.319-.89-.712Z" fill="#3BC4FF"/><path d="M115 251.114v-5.915h2.685c.671 0 1.19.155 1.555.466.37.304.556.722.556 1.254 0 .526-.189.944-.565 1.254-.371.311-.886.466-1.546.466h-1.564v2.475H115Zm1.121-3.298h1.433c.394 0 .687-.077.878-.232.197-.155.295-.374.295-.657 0-.288-.095-.506-.287-.656-.191-.155-.486-.233-.886-.233h-1.433v1.778Zm6.389 3.356a1.98 1.98 0 0 1-1.016-.257 1.788 1.788 0 0 1-.686-.748c-.157-.327-.235-.709-.235-1.146 0-.443.081-.828.243-1.155.162-.332.388-.59.678-.773a1.85 1.85 0 0 1 1.016-.282c.371 0 .693.089.965.266.278.172.466.412.564.723l-.104.058v-.939h1.069v4.195h-1.069v-.947l.104.033a1.275 1.275 0 0 1-.564.723 1.817 1.817 0 0 1-.965.249Zm.296-.797c.359 0 .637-.119.834-.357.197-.238.295-.576.295-1.014 0-.448-.098-.789-.295-1.022-.197-.238-.475-.357-.834-.357-.365 0-.649.122-.852.366-.202.243-.304.587-.304 1.03 0 .432.102.767.304 1.005.203.233.487.349.852.349Zm3.537 2.625-.243-.798a3.42 3.42 0 0 0 .677-.199c.18-.072.328-.166.443-.282a1.41 1.41 0 0 0 .305-.449l.312-.681.278-.382 1.408-3.29h1.077l-2.033 4.478c-.168.365-.362.656-.582.872a2.18 2.18 0 0 1-.747.498 3.67 3.67 0 0 1-.895.233Zm1.52-1.612-2.024-4.469h1.138l1.382 3.29-.496 1.179Zm3.553-.274v-3.007c0-.194-.005-.39-.017-.59a5.036 5.036 0 0 0-.052-.598h1.025l.122 1.08-.122-.058c.075-.371.246-.651.513-.839a1.52 1.52 0 0 1 .903-.283c.087 0 .168.006.243.017a.942.942 0 0 1 .2.05l-.017.947a1.528 1.528 0 0 0-.573-.108c-.261 0-.475.05-.643.149a.999.999 0 0 0-.374.407 1.277 1.277 0 0 0-.122.565v2.268h-1.086Zm5.577.058c-.458 0-.855-.088-1.191-.265a1.873 1.873 0 0 1-.764-.748c-.18-.327-.269-.715-.269-1.163 0-.443.089-.828.269-1.155.179-.332.434-.587.764-.764.336-.177.733-.266 1.191-.266.446 0 .834.089 1.164.266.336.177.594.432.773.764.185.327.278.712.278 1.155 0 .448-.093.836-.278 1.163a1.86 1.86 0 0 1-.773.748c-.33.177-.718.265-1.164.265Zm0-.797c.359 0 .634-.114.825-.341.197-.232.295-.578.295-1.038 0-.454-.098-.795-.295-1.022-.191-.233-.466-.349-.825-.349-.365 0-.649.116-.852.349-.197.227-.295.568-.295 1.022 0 .46.098.806.295 1.038.197.227.481.341.852.341Zm3.404.739V245h1.086v6.114h-1.086Zm2.517 0V245H144v6.114h-1.086Z" fill="#fff"/><g filter="url(#m)"><rect x="116" y="171" width="14" height="14" rx="2" fill="url(#n)"/></g><g filter="url(#o)"><rect x="512" y="214" width="8" height="8" rx="2" fill="url(#p)"/></g><g filter="url(#q)"><rect x="385" y="452" width="14" height="14" rx="2" fill="url(#r)"/></g><g filter="url(#s)"><rect x="154" y="556" width="8" height="8" rx="1" fill="url(#t)"/></g><g filter="url(#u)"><rect x="10" y="47" width="12" height="12" rx="1" fill="url(#v)"/></g><defs><linearGradient id="a" x1="237.1" y1="446.267" x2="348.701" y2="338.005" gradientUnits="userSpaceOnUse"><stop stop-color="#5754D8"/><stop offset="1" stop-color="#171B2F" stop-opacity="0"/></linearGradient><linearGradient id="b" x1="256.967" y1="478.242" x2="301.06" y2="375.171" gradientUnits="userSpaceOnUse"><stop stop-color="#48ABE2"/><stop offset="1" stop-color="#B434D5"/></linearGradient><linearGradient id="d" x1="431.322" y1="300.538" x2="431.322" y2="405.645" gradientUnits="userSpaceOnUse"><stop stop-color="#542DD1"/><stop offset="1" stop-color="#542DD1" stop-opacity="0"/></linearGradient><linearGradient id="e" x1="436.953" y1="289.276" x2="470.924" y2="408.919" gradientUnits="userSpaceOnUse"><stop stop-color="#48ABE2"/><stop offset="1" stop-color="#B434D5"/></linearGradient><linearGradient id="f" x1="391.28" y1="279.266" x2="407.303" y2="315.222" gradientUnits="userSpaceOnUse"><stop stop-color="#48ABE2"/><stop offset="1" stop-color="#B434D5"/></linearGradient><linearGradient id="g" x1="229.911" y1="94.021" x2="317.02" y2="180.902" gradientUnits="userSpaceOnUse"><stop stop-color="#5754D8"/><stop offset="1" stop-color="#171B2F" stop-opacity="0"/></linearGradient><linearGradient id="h" x1="235.693" y1="66.257" x2="195.642" y2="159.052" gradientUnits="userSpaceOnUse"><stop stop-color="#48ABE2"/><stop offset="1" stop-color="#B434D5"/></linearGradient><linearGradient id="i" x1="440.953" y1="197.899" x2="338.017" y2="297.756" gradientUnits="userSpaceOnUse"><stop stop-color="#5754D8"/><stop offset="1" stop-color="#171B2F" stop-opacity="0"/></linearGradient><linearGradient id="j" x1="422.209" y1="169" x2="381.917" y2="263.186" gradientUnits="userSpaceOnUse"><stop stop-color="#48ABE2"/><stop offset="1" stop-color="#B434D5"/></linearGradient><linearGradient id="k" x1="123.235" y1="241.802" x2="123.235" y2="361.516" gradientUnits="userSpaceOnUse"><stop stop-color="#542DD1"/><stop offset="1" stop-color="#542DD1" stop-opacity="0"/></linearGradient><linearGradient id="l" x1="128.935" y1="231.826" x2="165.479" y2="358.743" gradientUnits="userSpaceOnUse"><stop stop-color="#48ABE2"/><stop offset="1" stop-color="#B434D5"/></linearGradient><linearGradient id="n" x1="117.604" y1="167.792" x2="132.187" y2="186.896" gradientUnits="userSpaceOnUse"><stop stop-color="#FC6D0B"/><stop offset=".547" stop-color="#FC6D0B"/><stop offset="1" stop-color="#FF9F00"/></linearGradient><linearGradient id="p" x1="512.917" y1="212.167" x2="521.25" y2="223.083" gradientUnits="userSpaceOnUse"><stop stop-color="#FC6D0B"/><stop offset=".547" stop-color="#FC6D0B"/><stop offset="1" stop-color="#FF9F00"/></linearGradient><linearGradient id="r" x1="386.604" y1="448.792" x2="401.187" y2="467.896" gradientUnits="userSpaceOnUse"><stop stop-color="#232E5F"/><stop offset="1" stop-color="#232E61"/></linearGradient><linearGradient id="t" x1="154.917" y1="554.167" x2="163.25" y2="565.083" gradientUnits="userSpaceOnUse"><stop stop-color="#232E5F"/><stop offset="1" stop-color="#232E61"/></linearGradient><linearGradient id="v" x1="11.375" y1="44.25" x2="23.875" y2="60.625" gradientUnits="userSpaceOnUse"><stop stop-color="#FC6D0B"/><stop offset=".547" stop-color="#FC6D0B"/><stop offset="1" stop-color="#FF9F00"/></linearGradient><filter id="c" x="321.045" y="240.31" width="249.336" height="214.301" filterUnits="userSpaceOnUse" color-interpolation-filters="sRGB"><feFlood flood-opacity="0" result="BackgroundImageFix"/><feBlend in="SourceGraphic" in2="BackgroundImageFix" result="shape"/><feGaussianBlur stdDeviation="31.991" result="effect1_foregroundBlur_677:33950"/></filter><filter id="m" x="106" y="161" width="34" height="34" filterUnits="userSpaceOnUse" color-interpolation-filters="sRGB"><feFlood flood-opacity="0" result="BackgroundImageFix"/><feColorMatrix in="SourceAlpha" values="0 0 0 0 0 0 0 0 0 0 0 0 0 0 0 0 0 0 127 0" result="hardAlpha"/><feOffset/><feGaussianBlur stdDeviation="5"/><feComposite in2="hardAlpha" operator="out"/><feColorMatrix values="0 0 0 0 0 0 0 0 0 0 0 0 0 0 0 0 0 0 0.15 0"/><feBlend in2="BackgroundImageFix" result="effect1_dropShadow_677:33950"/><feBlend in="SourceGraphic" in2="effect1_dropShadow_677:33950" result="shape"/></filter><filter id="o" x="502" y="204" width="28" height="28" filterUnits="userSpaceOnUse" color-interpolation-filters="sRGB"><feFlood flood-opacity="0" result="BackgroundImageFix"/><feColorMatrix in="SourceAlpha" values="0 0 0 0 0 0 0 0 0 0 0 0 0 0 0 0 0 0 127 0" result="hardAlpha"/><feOffset/><feGaussianBlur stdDeviation="5"/><feComposite in2="hardAlpha" operator="out"/><feColorMatrix values="0 0 0 0 0 0 0 0 0 0 0 0 0 0 0 0 0 0 0.15 0"/><feBlend in2="BackgroundImageFix" result="effect1_dropShadow_677:33950"/><feBlend in="SourceGraphic" in2="effect1_dropShadow_677:33950" result="shape"/></filter><filter id="q" x="375" y="442" width="34" height="34" filterUnits="userSpaceOnUse" color-interpolation-filters="sRGB"><feFlood flood-opacity="0" result="BackgroundImageFix"/><feColorMatrix in="SourceAlpha" values="0 0 0 0 0 0 0 0 0 0 0 0 0 0 0 0 0 0 127 0" result="hardAlpha"/><feOffset/><feGaussianBlur stdDeviation="5"/><feComposite in2="hardAlpha" operator="out"/><feColorMatrix values="0 0 0 0 0 0 0 0 0 0 0 0 0 0 0 0 0 0 0.15 0"/><feBlend in2="BackgroundImageFix" result="effect1_dropShadow_677:33950"/><feBlend in="SourceGraphic" in2="effect1_dropShadow_677:33950" result="shape"/></filter><filter id="s" x="144" y="546" width="28" height="28" filterUnits="userSpaceOnUse" color-interpolation-filters="sRGB"><feFlood flood-opacity="0" result="BackgroundImageFix"/><feColorMatrix in="SourceAlpha" values="0 0 0 0 0 0 0 0 0 0 0 0 0 0 0 0 0 0 127 0" result="hardAlpha"/><feOffset/><feGaussianBlur stdDeviation="5"/><feComposite in2="hardAlpha" operator="out"/><feColorMatrix values="0 0 0 0 0 0 0 0 0 0 0 0 0 0 0 0 0 0 0.15 0"/><feBlend in2="BackgroundImageFix" result="effect1_dropShadow_677:33950"/><feBlend in="SourceGraphic" in2="effect1_dropShadow_677:33950" result="shape"/></filter><filter id="u" x="0" y="37" width="32" height="32" filterUnits="userSpaceOnUse" color-interpolation-filters="sRGB"><feFlood flood-opacity="0" result="BackgroundImageFix"/><feColorMatrix in="SourceAlpha" values="0 0 0 0 0 0 0 0 0 0 0 0 0 0 0 0 0 0 127 0" result="hardAlpha"/><feOffset/><feGaussianBlur stdDeviation="5"/><feComposite in2="hardAlpha" operator="out"/><feColorMatrix values="0 0 0 0 0 0 0 0 0 0 0 0 0 0 0 0 0 0 0.15 0"/><feBlend in2="BackgroundImageFix" result="effect1_dropShadow_677:33950"/><feBlend in="SourceGraphic" in2="effect1_dropShadow_677:33950" result="shape"/></filter></defs></svg>